<svg width="14" height="8" viewBox="0 0 14 8" fill="none" xmlns="http://www.w3.org/2000/svg">
<path d="M13.71 0.709983C13.617 0.616254 13.5064 0.54186 13.3846 0.491091C13.2627 0.440323 13.132 0.414185 13 0.414185C12.868 0.414185 12.7373 0.440323 12.6154 0.491091C12.4936 0.54186 12.383 0.616254 12.29 0.709983L7.71 5.28998C7.61704 5.38371 7.50644 5.45811 7.38458 5.50887C7.26272 5.55964 7.13201 5.58578 7 5.58578C6.86799 5.58578 6.73728 5.55964 6.61542 5.50887C6.49356 5.45811 6.38296 5.38371 6.29 5.28998L1.71 0.709983C1.61704 0.616254 1.50644 0.54186 1.38458 0.491091C1.26272 0.440323 1.13201 0.414185 0.999999 0.414185C0.867987 0.414185 0.737282 0.440323 0.615422 0.491091C0.493563 0.54186 0.382962 0.616254 0.289999 0.709983C0.103748 0.897345 -0.000793457 1.1508 -0.000793457 1.41498C-0.000793457 1.67917 0.103748 1.93262 0.289999 2.11998L4.88 6.70998C5.4425 7.27178 6.205 7.58734 7 7.58734C7.795 7.58734 8.5575 7.27178 9.12 6.70998L13.71 2.11998C13.8963 1.93262 14.0008 1.67917 14.0008 1.41498C14.0008 1.1508 13.8963 0.897345 13.71 0.709983Z" fill="black"/>
</svg>
