<svg width="20" height="12" viewBox="0 0 20 12" fill="none" xmlns="http://www.w3.org/2000/svg">
<path d="M5.175 11C5.33021 10.8438 5.41732 10.6326 5.41732 10.4125C5.41732 10.1923 5.33021 9.98112 5.175 9.82498L2.15 6.83332L19.1667 6.83332C19.3877 6.83332 19.5996 6.74552 19.7559 6.58924C19.9122 6.43296 20 6.221 20 5.99998C20 5.77897 19.9122 5.56701 19.7559 5.41073C19.5996 5.25445 19.3877 5.16665 19.1667 5.16665L2.15833 5.16665L5.175 2.14998C5.2531 2.07251 5.3151 1.98035 5.35741 1.8788C5.39971 1.77725 5.4215 1.66833 5.4215 1.55832C5.4215 1.44831 5.39971 1.33938 5.35741 1.23784C5.3151 1.13629 5.2531 1.04412 5.175 0.966649C5.01886 0.811439 4.80765 0.724321 4.5875 0.724321C4.36734 0.724321 4.15613 0.811439 4 0.966649L0.73333 4.22498C0.265162 4.69373 0.00219701 5.32915 0.00219704 5.99165C0.00219707 6.65415 0.265162 7.28956 0.733331 7.75832L4 11C4.15613 11.1552 4.36734 11.2423 4.5875 11.2423C4.80765 11.2423 5.01886 11.1552 5.175 11Z" fill="black"/>
</svg>
