<svg width="12" height="6" viewBox="0 0 12 6" fill="none" xmlns="http://www.w3.org/2000/svg">
<path d="M11.4257 0.246499C11.3482 0.168392 11.256 0.106396 11.1545 0.0640889C11.0529 0.0217817 10.944 0 10.834 0C10.724 0 10.6151 0.0217817 10.5135 0.0640889C10.412 0.106396 10.3198 0.168392 10.2423 0.246499L6.42566 4.06317C6.34819 4.14127 6.25602 4.20327 6.15448 4.24557C6.05293 4.28788 5.944 4.30966 5.83399 4.30966C5.72398 4.30966 5.61506 4.28788 5.51351 4.24557C5.41196 4.20327 5.3198 4.14127 5.24233 4.06317L1.42566 0.246499C1.34819 0.168392 1.25602 0.106396 1.15447 0.0640889C1.05293 0.0217817 0.944004 0 0.833994 0C0.723984 0 0.615063 0.0217817 0.513513 0.0640889C0.411964 0.106396 0.319796 0.168392 0.242327 0.246499C0.0871179 0.402634 0 0.613844 0 0.833999C0 1.05415 0.0871179 1.26536 0.242327 1.4215L4.06733 5.2465C4.53608 5.71467 5.17149 5.97763 5.83399 5.97763C6.4965 5.97763 7.13191 5.71467 7.60066 5.2465L11.4257 1.4215C11.5809 1.26536 11.668 1.05415 11.668 0.833999C11.668 0.613844 11.5809 0.402634 11.4257 0.246499Z" fill="black"/>
</svg>
