<svg width="14" height="14" viewBox="0 0 10 10" fill="none" xmlns="http://www.w3.org/2000/svg">
<path d="M0.24905 0.249044C-0.0830168 0.581112 -0.0830168 1.11949 0.24905 1.45155L3.29749 4.49998L0.24905 7.54847C-0.0830168 7.88052 -0.0830168 8.41893 0.24905 8.75097C0.581109 9.08301 1.11949 9.08301 1.45155 8.75097L4.49998 5.70247L7.54848 8.75097C7.88052 9.08301 8.41893 9.08301 8.75097 8.75097C9.08301 8.41893 9.08301 7.88052 8.75097 7.54847L5.70248 4.49998L8.75097 1.45156C9.08301 1.1195 9.08301 0.58112 8.75097 0.249061C8.41884 -0.0830062 7.88052 -0.0830062 7.54848 0.249061L4.49998 3.29749L1.45155 0.249044C1.11949 -0.0830147 0.581109 -0.0830147 0.24905 0.249044Z" fill="#0F0F0F"/>
</svg>
