<svg width="16" height="16" viewBox="0 0 16 16" fill="none" xmlns="http://www.w3.org/2000/svg">
<g clip-path="url(#clip0_1149_452)">
<path d="M15.2194 6.11469L12.6334 3.52869C12.5076 3.40726 12.3392 3.34006 12.1644 3.34158C11.9897 3.3431 11.8224 3.41321 11.6988 3.53682C11.5752 3.66042 11.5051 3.82763 11.5036 4.00243C11.5021 4.17722 11.5693 4.34563 11.6907 4.47136L14.2767 7.05736C14.3535 7.13571 14.4207 7.223 14.4767 7.31736C14.4667 7.31736 14.4587 7.31203 14.4487 7.31203L3.99272 7.33336C3.81591 7.33336 3.64634 7.4036 3.52131 7.52862C3.39629 7.65365 3.32605 7.82322 3.32605 8.00003C3.32605 8.17684 3.39629 8.34641 3.52131 8.47143C3.64634 8.59646 3.81591 8.6667 3.99272 8.6667L14.4447 8.64536C14.4634 8.64536 14.4787 8.63603 14.4967 8.6347C14.4376 8.74747 14.3626 8.85119 14.2741 8.94269L11.6881 11.5287C11.6244 11.5902 11.5736 11.6638 11.5387 11.7451C11.5037 11.8264 11.4853 11.9139 11.4846 12.0024C11.4838 12.0909 11.5006 12.1787 11.5342 12.2607C11.5677 12.3426 11.6172 12.417 11.6798 12.4796C11.7424 12.5422 11.8168 12.5917 11.8987 12.6252C11.9807 12.6588 12.0685 12.6756 12.157 12.6749C12.2455 12.6741 12.333 12.6557 12.4143 12.6208C12.4957 12.5858 12.5692 12.535 12.6307 12.4714L15.2167 9.88536C15.7166 9.38529 15.9975 8.70713 15.9975 8.00003C15.9975 7.29292 15.7166 6.61477 15.2167 6.11469H15.2194Z" fill="#E81414"/>
<path d="M4.66667 14.6667H3.33333C2.8029 14.6667 2.29419 14.456 1.91912 14.0809C1.54405 13.7058 1.33333 13.1971 1.33333 12.6667V3.33333C1.33333 2.8029 1.54405 2.29419 1.91912 1.91912C2.29419 1.54405 2.8029 1.33333 3.33333 1.33333H4.66667C4.84348 1.33333 5.01305 1.2631 5.13807 1.13807C5.26309 1.01305 5.33333 0.843478 5.33333 0.666667C5.33333 0.489856 5.26309 0.320286 5.13807 0.195262C5.01305 0.0702379 4.84348 0 4.66667 0L3.33333 0C2.4496 0.00105857 1.60237 0.352588 0.97748 0.97748C0.352588 1.60237 0.00105857 2.4496 0 3.33333L0 12.6667C0.00105857 13.5504 0.352588 14.3976 0.97748 15.0225C1.60237 15.6474 2.4496 15.9989 3.33333 16H4.66667C4.84348 16 5.01305 15.9298 5.13807 15.8047C5.26309 15.6797 5.33333 15.5101 5.33333 15.3333C5.33333 15.1565 5.26309 14.987 5.13807 14.8619C5.01305 14.7369 4.84348 14.6667 4.66667 14.6667Z" fill="#E81414"/>
</g>
<defs>
<clipPath id="clip0_1149_452">
<rect width="16" height="16" fill="white"/>
</clipPath>
</defs>
</svg>
