<svg width="20" height="20" viewBox="0 0 20 20" fill="none" xmlns="http://www.w3.org/2000/svg">
<path d="M19.8824 13.1636L17.7158 5.55096C17.2531 3.9225 16.245 2.4917 14.8518 1.48628C13.4587 0.480848 11.7606 -0.0414287 10.0278 0.00256873C8.29504 0.0465662 6.62714 0.654309 5.28958 1.72907C3.95202 2.80384 3.02167 4.28386 2.6466 5.93358L0.970763 13.2855C0.889673 13.6417 0.891651 14.011 0.976551 14.3664C1.06145 14.7217 1.2271 15.0539 1.46129 15.3385C1.69548 15.6231 1.99222 15.8528 2.32963 16.0107C2.66704 16.1685 3.0365 16.2505 3.41076 16.2506H6.4166C6.60786 17.1688 7.11887 17.9943 7.86305 18.5873C8.60722 19.1802 9.5388 19.5042 10.4999 19.5042C11.4611 19.5042 12.3926 19.1802 13.1368 18.5873C13.881 17.9943 14.392 17.1688 14.5833 16.2506H17.4749C17.86 16.2505 18.2399 16.1636 18.5848 15.9967C18.9298 15.8299 19.2306 15.5876 19.4637 15.2888C19.6968 14.99 19.856 14.6428 19.9287 14.2741C20.0015 13.9055 19.9851 13.5254 19.8824 13.1636ZM10.4999 17.8754C9.98471 17.8733 9.48274 17.7161 9.06268 17.4252C8.64262 17.1344 8.325 16.7242 8.15326 16.2506H12.8466C12.6749 16.7242 12.3572 17.1344 11.9372 17.4252C11.5171 17.7161 11.0151 17.8733 10.4999 17.8754ZM18.1374 14.305C18.0597 14.4055 17.9589 14.4868 17.8431 14.5425C17.7274 14.5983 17.5999 14.6268 17.4708 14.6259H3.41076C3.28598 14.6259 3.1628 14.5985 3.0503 14.5459C2.93781 14.4933 2.83888 14.4167 2.76081 14.3218C2.68274 14.2269 2.62753 14.1161 2.59925 13.9976C2.57097 13.8791 2.57035 13.756 2.59743 13.6372L4.27326 6.28533C4.56856 4.99059 5.29935 3.82923 6.34948 2.98587C7.3996 2.14251 8.70878 1.66555 10.0689 1.63082C11.429 1.59608 12.762 2.00556 13.856 2.79417C14.95 3.58277 15.7422 4.70524 16.1066 5.98313L18.2733 13.5958C18.3086 13.7162 18.3148 13.8429 18.2912 13.966C18.2676 14.0891 18.215 14.2052 18.1374 14.305Z" fill="black"/>
</svg>
