<svg width="18" height="18" viewBox="0 0 18 18" fill="none" xmlns="http://www.w3.org/2000/svg">
<g clip-path="url(#clip0_1802_94)">
<path d="M17.25 8.25H15.75V6.75C15.75 6.55109 15.671 6.36032 15.5303 6.21967C15.3897 6.07902 15.1989 6 15 6C14.8011 6 14.6103 6.07902 14.4697 6.21967C14.329 6.36032 14.25 6.55109 14.25 6.75V8.25H12.75C12.5511 8.25 12.3603 8.32902 12.2197 8.46967C12.079 8.61032 12 8.80109 12 9C12 9.19891 12.079 9.38968 12.2197 9.53033C12.3603 9.67098 12.5511 9.75 12.75 9.75H14.25V11.25C14.25 11.4489 14.329 11.6397 14.4697 11.7803C14.6103 11.921 14.8011 12 15 12C15.1989 12 15.3897 11.921 15.5303 11.7803C15.671 11.6397 15.75 11.4489 15.75 11.25V9.75H17.25C17.4489 9.75 17.6397 9.67098 17.7803 9.53033C17.921 9.38968 18 9.19891 18 9C18 8.80109 17.921 8.61032 17.7803 8.46967C17.6397 8.32902 17.4489 8.25 17.25 8.25Z" fill="black"/>
<path d="M6.75 9C7.64002 9 8.51005 8.73608 9.25007 8.24162C9.99009 7.74715 10.5669 7.04434 10.9075 6.22208C11.2481 5.39981 11.3372 4.49501 11.1635 3.6221C10.9899 2.74918 10.5613 1.94736 9.93198 1.31802C9.30264 0.688685 8.50082 0.260102 7.62791 0.0864683C6.75499 -0.0871652 5.85019 0.00194979 5.02792 0.342544C4.20566 0.683138 3.50285 1.25991 3.00839 1.99994C2.51392 2.73996 2.25 3.60999 2.25 4.5C2.25119 5.69311 2.72568 6.83701 3.56934 7.68067C4.41299 8.52432 5.55689 8.99881 6.75 9ZM6.75 1.5C7.34334 1.5 7.92336 1.67595 8.41671 2.00559C8.91006 2.33524 9.29458 2.80377 9.52164 3.35195C9.7487 3.90013 9.80811 4.50333 9.69236 5.08527C9.5766 5.66722 9.29088 6.20177 8.87132 6.62132C8.45176 7.04088 7.91721 7.3266 7.33527 7.44236C6.75333 7.55811 6.15013 7.4987 5.60195 7.27164C5.05377 7.04458 4.58524 6.66006 4.25559 6.16671C3.92595 5.67337 3.75 5.09335 3.75 4.5C3.75 3.70435 4.06607 2.94129 4.62868 2.37868C5.19129 1.81607 5.95435 1.5 6.75 1.5Z" fill="black"/>
<path d="M6.75 10.5C4.9604 10.502 3.24466 11.2138 1.97922 12.4792C0.713781 13.7447 0.00198514 15.4604 0 17.25C0 17.4489 0.0790176 17.6397 0.21967 17.7803C0.360322 17.921 0.551088 18 0.75 18C0.948912 18 1.13968 17.921 1.28033 17.7803C1.42098 17.6397 1.5 17.4489 1.5 17.25C1.5 15.8576 2.05312 14.5223 3.03769 13.5377C4.02226 12.5531 5.35761 12 6.75 12C8.14239 12 9.47774 12.5531 10.4623 13.5377C11.4469 14.5223 12 15.8576 12 17.25C12 17.4489 12.079 17.6397 12.2197 17.7803C12.3603 17.921 12.5511 18 12.75 18C12.9489 18 13.1397 17.921 13.2803 17.7803C13.421 17.6397 13.5 17.4489 13.5 17.25C13.498 15.4604 12.7862 13.7447 11.5208 12.4792C10.2553 11.2138 8.5396 10.502 6.75 10.5Z" fill="black"/>
</g>
<defs>
<clipPath id="clip0_1802_94">
<rect width="18" height="18" fill="white"/>
</clipPath>
</defs>
</svg>
