<svg width="18" height="18" viewBox="0 0 18 18" fill="none" xmlns="http://www.w3.org/2000/svg">
<g clip-path="url(#clip0_1304_543)">
<path d="M0.750084 18.0001C0.948981 18 1.13971 17.921 1.28033 17.7803L6.24459 12.8161L7.18059 13.7851C7.88606 14.5306 8.85838 14.9659 9.88434 14.9956C10.2264 14.9966 10.566 14.939 10.8886 14.8253C11.387 14.6537 11.8249 14.3411 12.149 13.9255C12.4732 13.5098 12.6698 13.009 12.7148 12.4838C12.7962 11.7232 12.7398 10.9541 12.5483 10.2136L12.3878 9.43205C12.3574 9.30708 12.3597 9.17639 12.3943 9.05253C12.429 8.92868 12.495 8.81582 12.5858 8.7248L13.7761 7.5338C13.823 7.48667 13.8866 7.45975 13.9531 7.4588C13.9764 7.45446 14.0005 7.45672 14.0227 7.46533C14.0448 7.47395 14.0641 7.48857 14.0783 7.50755C14.455 7.90704 14.9619 8.15912 15.5077 8.21851C16.0536 8.27789 16.6028 8.14069 17.0566 7.83155C17.3229 7.64172 17.5446 7.39612 17.7063 7.11186C17.8679 6.8276 17.9657 6.51151 17.9928 6.1856C18.0198 5.8597 17.9755 5.53181 17.8629 5.22478C17.7503 4.91775 17.5722 4.63895 17.3408 4.4078L13.6501 0.715552C13.2711 0.327128 12.7677 0.0842654 12.2278 0.0294264C11.6879 -0.0254126 11.1459 0.111261 10.6966 0.415552C10.4302 0.605327 10.2085 0.85088 10.0467 1.13511C9.88497 1.41934 9.78712 1.73542 9.75999 2.06133C9.73286 2.38723 9.77711 2.71514 9.88964 3.0222C10.0022 3.32926 10.1803 3.6081 10.4116 3.8393L10.4686 3.8963C10.5115 3.93957 10.5357 3.99808 10.5357 4.05905C10.5357 4.12003 10.5115 4.17853 10.4686 4.2218L9.26859 5.4218C9.17653 5.51366 9.06217 5.58001 8.93673 5.61433C8.81129 5.64865 8.67908 5.64976 8.55309 5.61755L7.94034 5.4608C7.18662 5.26396 6.40357 5.20476 5.62883 5.28605C5.07935 5.34296 4.5576 5.55578 4.12507 5.89941C3.69253 6.24304 3.36726 6.70317 3.18758 7.22555C2.99151 7.76237 2.95284 8.34402 3.07615 8.90207C3.19945 9.46011 3.47958 9.97132 3.88358 10.3756L5.20208 11.7406L0.219834 16.7198C0.114977 16.8247 0.0435724 16.9583 0.0146468 17.1038C-0.0142789 17.2492 0.00057332 17.4 0.0573259 17.537C0.114078 17.6741 0.210183 17.7912 0.33349 17.8736C0.456798 17.956 0.601772 18 0.750084 18.0001ZM4.60134 7.72505C4.68585 7.46954 4.84262 7.24401 5.05267 7.07575C5.26272 6.9075 5.51704 6.80375 5.78483 6.77705C5.9575 6.75908 6.13099 6.75007 6.30459 6.75005C6.73007 6.75007 7.15379 6.80477 7.56534 6.9128L8.18258 7.0703C8.56075 7.16598 8.95725 7.16203 9.33344 7.05885C9.70962 6.95567 10.0527 6.75677 10.3291 6.48155L11.5291 5.28155C11.8529 4.95679 12.0347 4.5169 12.0347 4.0583C12.0347 3.5997 11.8529 3.15981 11.5291 2.83505L11.4721 2.77805C11.3944 2.70058 11.3347 2.60701 11.2971 2.50396C11.2596 2.4009 11.2451 2.29085 11.2547 2.18158C11.2642 2.0723 11.2977 1.96646 11.3526 1.87152C11.4075 1.77657 11.4826 1.69483 11.5726 1.63205C11.7326 1.53517 11.9212 1.49644 12.1064 1.5224C12.2917 1.54836 12.4623 1.63742 12.5896 1.77455L16.2826 5.46755C16.3602 5.54503 16.42 5.63859 16.4575 5.74165C16.4951 5.84471 16.5096 5.95475 16.5 6.06403C16.4904 6.1733 16.457 6.27914 16.4021 6.37409C16.3471 6.46904 16.272 6.55078 16.1821 6.61355C16.0203 6.71176 15.8294 6.7505 15.6421 6.72313C15.4548 6.69575 15.283 6.60396 15.1561 6.46355C15.0018 6.30444 14.8171 6.17787 14.6131 6.0913C14.4091 6.00474 14.1897 5.95994 13.9681 5.95955C13.5005 5.96168 13.0521 6.14566 12.7178 6.47255L11.5283 7.6628C11.2582 7.93309 11.0614 8.26771 10.9564 8.63512C10.8515 9.00253 10.8418 9.39062 10.9283 9.7628L11.0926 10.5563C11.2439 11.1349 11.2899 11.7359 11.2283 12.3308C11.2104 12.5734 11.1216 12.8054 10.9729 12.9979C10.8242 13.1905 10.6223 13.3351 10.3921 13.4138C10.0084 13.5147 9.60403 13.5048 9.22574 13.3853C8.84745 13.2659 8.51074 13.0417 8.25459 12.7388L4.95458 9.3263C4.74881 9.12108 4.60617 8.86118 4.54357 8.57739C4.48096 8.29359 4.50101 7.9978 4.60134 7.72505Z" fill="black"/>
</g>
<defs>
<clipPath id="clip0_1304_543">
<rect width="18" height="18" fill="white"/>
</clipPath>
</defs>
</svg>
