<svg width="16" height="16" viewBox="0 0 16 16" fill="none" xmlns="http://www.w3.org/2000/svg">
<path fill-rule="evenodd" clip-rule="evenodd" d="M4.89294 0.209697C5.21896 0.507898 5.24151 1.01393 4.94331 1.33995L2.295 4.2353C4.57793 4.2353 10.265 4.23506 10.5522 4.2353L10.5532 4.2353L10.5556 4.23531L10.5616 4.23535L10.5787 4.23558C10.5924 4.23582 10.6104 4.23626 10.6326 4.23707C10.677 4.23869 10.738 4.24177 10.8133 4.24765C10.9637 4.25939 11.1727 4.28241 11.4211 4.32767C11.9144 4.41757 12.5827 4.59875 13.2594 4.96863C13.9405 5.34093 14.6353 5.90785 15.1567 6.76291C15.6791 7.61971 16 8.7209 16 10.1176C16 11.5144 15.6791 12.6156 15.1567 13.4724C14.6353 14.3274 13.9405 14.8944 13.2594 15.2667C12.5827 15.6366 11.9144 15.8177 11.4211 15.9076C11.1727 15.9529 10.9637 15.9759 10.8133 15.9876C10.738 15.9935 10.677 15.9966 10.6326 15.9982C10.6104 15.999 10.5924 15.9995 10.5787 15.9997L10.5616 16L10.5556 16L10.5532 16L10.5522 16C10.005 16 3.82024 16 1.25386 16C0.812031 16 0.453859 15.6418 0.453859 15.2C0.453859 14.7582 0.812032 14.4 1.25386 14.4L10.5485 14.4H10.5498C10.5537 14.3999 10.5625 14.3997 10.5744 14.3993C10.5981 14.3984 10.637 14.3965 10.6888 14.3925C10.7926 14.3844 10.9468 14.3677 11.1342 14.3335C11.5125 14.2646 12.0064 14.1282 12.4919 13.8627C12.973 13.5998 13.4404 13.2137 13.7906 12.6394C14.1398 12.0668 14.4 11.2621 14.4 10.1176C14.4 8.97322 14.1398 8.16853 13.7906 7.59591C13.4404 7.02157 12.973 6.63554 12.4919 6.37256C12.0064 6.10714 11.5125 5.97067 11.1342 5.90175C10.9468 5.8676 10.7926 5.85091 10.6888 5.8428C10.637 5.83875 10.5981 5.83687 10.5744 5.83601C10.5625 5.83558 10.5545 5.8354 10.5505 5.83533C10.5497 5.83531 10.5491 5.8353 10.5486 5.8353H2.295L4.94331 8.73065C5.24151 9.05667 5.21896 9.5627 4.89294 9.8609C4.56693 10.1591 4.0609 10.1365 3.76269 9.81053L0.436622 6.1742C-0.14554 5.53773 -0.145541 4.53286 0.436621 3.8964L3.76269 0.260063C4.0609 -0.0659544 4.56693 -0.0885042 4.89294 0.209697Z" fill="black"/>
</svg>
