<svg width="18" height="18" viewBox="0 0 18 18" fill="none" xmlns="http://www.w3.org/2000/svg">
<path d="M15 0H3C1.3455 0 0 1.3455 0 3V12C0 13.6545 1.3455 15 3 15H5.19225L8.004 17.3678C8.2905 17.622 8.64975 17.748 9.00675 17.748C9.35775 17.748 9.705 17.6257 9.97575 17.385L12.8618 15H15.0008C16.6553 15 18.0008 13.6545 18.0008 12V3C18.0008 1.3455 16.6545 0 15 0ZM5.25 9C4.629 9 4.125 8.496 4.125 7.875C4.125 7.254 4.629 6.75 5.25 6.75C5.871 6.75 6.375 7.254 6.375 7.875C6.375 8.496 5.871 9 5.25 9ZM9 9C8.379 9 7.875 8.496 7.875 7.875C7.875 7.254 8.379 6.75 9 6.75C9.621 6.75 10.125 7.254 10.125 7.875C10.125 8.496 9.621 9 9 9ZM12.75 9C12.129 9 11.625 8.496 11.625 7.875C11.625 7.254 12.129 6.75 12.75 6.75C13.371 6.75 13.875 7.254 13.875 7.875C13.875 8.496 13.371 9 12.75 9Z" fill="#3B28CC"/>
</svg>
