<svg width="18" height="18" viewBox="0 0 18 18" fill="none" xmlns="http://www.w3.org/2000/svg">
<path d="M10.125 7.875C10.125 8.496 9.62102 9 9.00002 9C8.37902 9 7.87502 8.496 7.87502 7.875C7.87502 7.254 8.37902 6.75 9.00002 6.75C9.62102 6.75 10.125 7.254 10.125 7.875ZM12.75 6.75C12.129 6.75 11.625 7.254 11.625 7.875C11.625 8.496 12.129 9 12.75 9C13.371 9 13.875 8.496 13.875 7.875C13.875 7.254 13.371 6.75 12.75 6.75ZM5.25002 6.75C4.62902 6.75 4.12502 7.254 4.12502 7.875C4.12502 8.496 4.62902 9 5.25002 9C5.87102 9 6.37502 8.496 6.37502 7.875C6.37502 7.254 5.87102 6.75 5.25002 6.75ZM18 3V12C18 13.6545 16.6545 15 15 15H12.861L9.97502 17.385C9.70427 17.6265 9.35702 17.748 9.00602 17.748C8.64902 17.748 8.28977 17.622 8.00327 17.3678L5.19152 15H2.99927C1.34477 15 -0.000732422 13.6545 -0.000732422 12V3C1.75782e-05 1.3455 1.34552 0 3.00002 0H15C16.6545 0 18 1.3455 18 3ZM16.5 3C16.5 2.17275 15.8273 1.5 15 1.5H3.00002C2.17277 1.5 1.50002 2.17275 1.50002 3V12C1.50002 12.8273 2.17277 13.5 3.00002 13.5H5.46602C5.64227 13.5 5.81402 13.5623 5.94977 13.6763L8.98577 16.2337L12.114 13.6718C12.2483 13.5608 12.417 13.5 12.5918 13.5H15.0008C15.828 13.5 16.5008 12.8273 16.5008 12L16.5 3Z" fill="black"/>
</svg>
