<svg width="18" height="19" viewBox="0 0 18 19" fill="none" xmlns="http://www.w3.org/2000/svg">
<g clip-path="url(#clip0_1634_894)">
<path d="M12.75 11C12.75 11.1989 12.671 11.3897 12.5303 11.5303C12.3897 11.671 12.1989 11.75 12 11.75H6C5.80109 11.75 5.61032 11.671 5.46967 11.5303C5.32902 11.3897 5.25 11.1989 5.25 11C5.25 10.8011 5.32902 10.6103 5.46967 10.4697C5.61032 10.329 5.80109 10.25 6 10.25H12C12.1989 10.25 12.3897 10.329 12.5303 10.4697C12.671 10.6103 12.75 10.8011 12.75 11ZM9.75 13.25H6C5.80109 13.25 5.61032 13.329 5.46967 13.4697C5.32902 13.6103 5.25 13.8011 5.25 14C5.25 14.1989 5.32902 14.3897 5.46967 14.5303C5.61032 14.671 5.80109 14.75 6 14.75H9.75C9.94891 14.75 10.1397 14.671 10.2803 14.5303C10.421 14.3897 10.5 14.1989 10.5 14C10.5 13.8011 10.421 13.6103 10.2803 13.4697C10.1397 13.329 9.94891 13.25 9.75 13.25ZM16.5 8.36377V14.75C16.4988 15.7442 16.1033 16.6973 15.4003 17.4004C14.6973 18.1034 13.7442 18.4988 12.75 18.5H5.25C4.2558 18.4988 3.30267 18.1034 2.59966 17.4004C1.89666 16.6973 1.50119 15.7442 1.5 14.75V4.25002C1.50119 3.25582 1.89666 2.30269 2.59966 1.59968C3.30267 0.896679 4.2558 0.501208 5.25 0.500017H8.63625C9.32596 0.498242 10.0092 0.633208 10.6464 0.897112C11.2836 1.16102 11.8622 1.54862 12.3488 2.03752L14.9618 4.65202C15.4509 5.1382 15.8388 5.71661 16.1028 6.35375C16.3669 6.99089 16.5019 7.67408 16.5 8.36377ZM11.2882 3.09802C11.0522 2.86939 10.7872 2.67271 10.5 2.51302V5.75002C10.5 5.94893 10.579 6.13969 10.7197 6.28035C10.8603 6.421 11.0511 6.50002 11.25 6.50002H14.487C14.3272 6.21291 14.1303 5.94813 13.9012 5.71252L11.2882 3.09802ZM15 8.36377C15 8.24002 14.976 8.12152 14.9647 8.00002H11.25C10.6533 8.00002 10.081 7.76296 9.65901 7.34101C9.23705 6.91905 9 6.34675 9 5.75002V2.03527C8.8785 2.02402 8.75925 2.00002 8.63625 2.00002H5.25C4.65326 2.00002 4.08097 2.23707 3.65901 2.65903C3.23705 3.08098 3 3.65328 3 4.25002V14.75C3 15.3468 3.23705 15.919 3.65901 16.341C4.08097 16.763 4.65326 17 5.25 17H12.75C13.3467 17 13.919 16.763 14.341 16.341C14.7629 15.919 15 15.3468 15 14.75V8.36377Z" fill="#0040E5"/>
</g>
<defs>
<clipPath id="clip0_1634_894">
<rect width="18" height="18" fill="white" transform="translate(0 0.5)"/>
</clipPath>
</defs>
</svg>
