<svg width="19" height="19" viewBox="0 0 19 19" fill="none" xmlns="http://www.w3.org/2000/svg">
<g clip-path="url(#clip0_1846_63)">
<path d="M9.5 0.5C7.71997 0.5 5.97991 1.02784 4.49987 2.01677C3.01983 3.00571 1.86628 4.41131 1.18509 6.05585C0.5039 7.70038 0.32567 9.50998 0.672937 11.2558C1.0202 13.0016 1.87737 14.6053 3.13604 15.864C4.39472 17.1226 5.99836 17.9798 7.74419 18.3271C9.49002 18.6743 11.2996 18.4961 12.9442 17.8149C14.5887 17.1337 15.9943 15.9802 16.9832 14.5001C17.9722 13.0201 18.5 11.28 18.5 9.5C18.4974 7.11384 17.5484 4.82616 15.8611 3.13889C14.1738 1.45162 11.8862 0.502581 9.5 0.5ZM9.5 17C8.01664 17 6.5666 16.5601 5.33323 15.736C4.09986 14.9119 3.13856 13.7406 2.57091 12.3701C2.00325 10.9997 1.85473 9.49168 2.14411 8.03682C2.4335 6.58197 3.14781 5.24559 4.1967 4.1967C5.2456 3.14781 6.58197 2.4335 8.03683 2.14411C9.49168 1.85472 10.9997 2.00325 12.3701 2.5709C13.7406 3.13856 14.9119 4.09985 15.736 5.33322C16.5601 6.56659 17 8.01664 17 9.5C16.9978 11.4885 16.2069 13.3948 14.8009 14.8009C13.3948 16.2069 11.4885 16.9978 9.5 17Z" fill="black"/>
<path d="M10.0378 4.29761C9.60525 4.21881 9.16071 4.23603 8.7356 4.34804C8.31048 4.46006 7.91518 4.66414 7.57767 4.94584C7.24016 5.22754 6.96868 5.57998 6.78246 5.97821C6.59623 6.37644 6.4998 6.81074 6.5 7.25036C6.5 7.44928 6.57902 7.64004 6.71967 7.78069C6.86032 7.92134 7.05109 8.00036 7.25 8.00036C7.44891 8.00036 7.63968 7.92134 7.78033 7.78069C7.92098 7.64004 8 7.44928 8 7.25036C7.99981 7.02969 8.04831 6.8117 8.14204 6.61193C8.23578 6.41216 8.37243 6.23553 8.54226 6.09463C8.7121 5.95374 8.91092 5.85205 9.12457 5.79682C9.33821 5.74159 9.56141 5.73418 9.77825 5.77511C10.0745 5.83263 10.3469 5.97715 10.5607 6.19023C10.7744 6.40331 10.9198 6.67526 10.9783 6.97136C11.0373 7.28216 10.9965 7.60367 10.8618 7.88992C10.7271 8.17616 10.5054 8.41249 10.2283 8.56511C9.76938 8.83096 9.39019 9.215 9.13019 9.67721C8.8702 10.1394 8.73891 10.6629 8.75 11.1931V11.7504C8.75 11.9493 8.82902 12.14 8.96967 12.2807C9.11032 12.4213 9.30109 12.5004 9.5 12.5004C9.69891 12.5004 9.88968 12.4213 10.0303 12.2807C10.171 12.14 10.25 11.9493 10.25 11.7504V11.1931C10.2406 10.9321 10.3001 10.6733 10.4226 10.4426C10.545 10.2119 10.7261 10.0176 10.9475 9.87911C11.4909 9.58067 11.9285 9.12121 12.2001 8.56392C12.4717 8.00663 12.5639 7.37888 12.4642 6.76701C12.3645 6.15513 12.0776 5.58918 11.6431 5.14698C11.2086 4.70479 10.6478 4.40806 10.0378 4.29761Z" fill="black"/>
<path d="M10.25 14C10.25 13.5858 9.91421 13.25 9.5 13.25C9.08579 13.25 8.75 13.5858 8.75 14C8.75 14.4142 9.08579 14.75 9.5 14.75C9.91421 14.75 10.25 14.4142 10.25 14Z" fill="black"/>
</g>
<defs>
<clipPath id="clip0_1846_63">
<rect width="18" height="18" fill="white" transform="translate(0.5 0.5)"/>
</clipPath>
</defs>
</svg>
