<svg width="18" height="18" viewBox="0 0 18 18" fill="none" xmlns="http://www.w3.org/2000/svg">
<g clip-path="url(#clip0_1634_1424)">
<path d="M8.24826 10.1429V5.57143C8.24826 5.15238 8.58595 4.80952 8.99868 4.80952C9.41141 4.80952 9.74909 5.15238 9.74909 5.57143V10.1429C9.74909 10.5619 9.41141 10.9048 8.99868 10.9048C8.58595 10.9048 8.24826 10.5619 8.24826 10.1429ZM8.99868 11.6667C8.37583 11.6667 7.87306 12.1771 7.87306 12.8095C7.87306 13.4419 8.37583 13.9524 8.99868 13.9524C9.62152 13.9524 10.1243 13.4419 10.1243 12.8095C10.1243 12.1771 9.62152 11.6667 8.99868 11.6667ZM17.6885 15.3848C17.1632 16.4133 16.0601 17 14.6793 17H3.32554C1.93727 17 0.841668 16.4133 0.316378 15.3848C-0.216417 14.3486 -0.0663341 13.0229 0.691585 11.9105L6.72492 2.21905C7.25772 1.4419 8.09818 1 8.99868 1C9.89918 1 10.7396 1.4419 11.2499 2.19619L17.3133 11.9257C18.0712 13.0381 18.2138 14.3562 17.681 15.3848H17.6885ZM16.0751 12.779C16.0751 12.779 16.0601 12.7638 16.0601 12.7486L10.0042 3.03429C9.78661 2.7219 9.41141 2.52381 8.99868 2.52381C8.58595 2.52381 8.21074 2.7219 7.97811 3.06476L1.93727 12.7486C1.47202 13.419 1.36696 14.1505 1.63711 14.6762C1.89975 15.1943 2.50008 15.4762 3.31804 15.4762H14.6643C15.4823 15.4762 16.0826 15.1943 16.3452 14.6762C16.6154 14.1505 16.5103 13.419 16.0676 12.779H16.0751Z" fill="#E81414"/>
</g>
<defs>
<clipPath id="clip0_1634_1424">
<rect width="18" height="18" fill="white"/>
</clipPath>
</defs>
</svg>
