<svg width="19" height="19" viewBox="0 0 19 19" fill="none" xmlns="http://www.w3.org/2000/svg">
<g clip-path="url(#clip0_1814_50)">
<path d="M9.5 0.5C7.71997 0.5 5.97991 1.02784 4.49987 2.01677C3.01983 3.00571 1.86628 4.41131 1.18509 6.05585C0.5039 7.70038 0.32567 9.50998 0.672937 11.2558C1.0202 13.0016 1.87737 14.6053 3.13604 15.864C4.39472 17.1226 5.99836 17.9798 7.74419 18.3271C9.49002 18.6743 11.2996 18.4961 12.9442 17.8149C14.5887 17.1337 15.9943 15.9802 16.9832 14.5001C17.9722 13.0201 18.5 11.28 18.5 9.5C18.4974 7.11384 17.5484 4.82616 15.8611 3.13889C14.1738 1.45162 11.8862 0.502581 9.5 0.5ZM9.5 17C8.01664 17 6.5666 16.5601 5.33323 15.736C4.09986 14.9119 3.13856 13.7406 2.57091 12.3701C2.00325 10.9997 1.85473 9.49168 2.14411 8.03682C2.4335 6.58197 3.14781 5.24559 4.1967 4.1967C5.2456 3.14781 6.58197 2.4335 8.03683 2.14411C9.49168 1.85472 10.9997 2.00325 12.3701 2.5709C13.7406 3.13856 14.9119 4.09985 15.736 5.33322C16.5601 6.56659 17 8.01664 17 9.5C16.9978 11.4885 16.2069 13.3948 14.8009 14.8009C13.3948 16.2069 11.4885 16.9978 9.5 17Z" fill="#E81414"/>
<path d="M9.5 4.25C9.30109 4.25 9.11032 4.32902 8.96967 4.46967C8.82902 4.61032 8.75 4.80109 8.75 5V11C8.75 11.1989 8.82902 11.3897 8.96967 11.5303C9.11032 11.671 9.30109 11.75 9.5 11.75C9.69891 11.75 9.88968 11.671 10.0303 11.5303C10.171 11.3897 10.25 11.1989 10.25 11V5C10.25 4.80109 10.171 4.61032 10.0303 4.46967C9.88968 4.32902 9.69891 4.25 9.5 4.25Z" fill="#E81414"/>
<path d="M10.25 14C10.25 13.5858 9.91421 13.25 9.5 13.25C9.08579 13.25 8.75 13.5858 8.75 14C8.75 14.4142 9.08579 14.75 9.5 14.75C9.91421 14.75 10.25 14.4142 10.25 14Z" fill="#E81414"/>
</g>
<defs>
<clipPath id="clip0_1814_50">
<rect width="18" height="18" fill="white" transform="translate(0.5 0.5)"/>
</clipPath>
</defs>
</svg>
