<svg width="18" height="18" viewBox="0 0 18 18" fill="none" xmlns="http://www.w3.org/2000/svg">
<path d="M13.995 15.675C13.6875 15.3975 13.2075 15.4275 12.9375 15.7425C12.51 16.23 11.895 16.5075 11.25 16.5075H3.75C2.5125 16.5075 1.5 15.495 1.5 14.2575V3.75C1.5 2.5125 2.5125 1.5 3.75 1.5H7.1325C7.2525 1.5 7.38 1.5 7.5 1.515V5.25C7.5 6.4875 8.5125 7.5 9.75 7.5H14.1075C14.34 7.5 14.5575 7.395 14.7 7.2075C14.8425 7.02 14.8875 6.7875 14.835 6.5625C14.6025 5.6475 14.13 4.815 13.4625 4.1475L10.8525 1.5375C9.8625 0.5475 8.5425 0 7.14 0H3.75C1.68 0 0 1.68 0 3.75V14.25C0 16.32 1.68 18 3.75 18H11.25C12.3225 18 13.35 17.535 14.0625 16.7325C14.34 16.425 14.31 15.945 13.995 15.675ZM9 1.995C9.285 2.16 9.5475 2.3625 9.7875 2.6025L12.3975 5.2125C12.63 5.445 12.8325 5.715 12.9975 6H9.7425C9.33 6 8.9925 5.6625 8.9925 5.25V1.995H9ZM17.3475 13.5675L16.14 14.775C15.99 14.925 15.8025 14.9925 15.6075 14.9925C15.4125 14.9925 15.225 14.9175 15.075 14.775C14.7825 14.4825 14.7825 14.01 15.075 13.7175L16.0425 12.75H10.4925C10.08 12.75 9.7425 12.4125 9.7425 12C9.7425 11.5875 10.08 11.25 10.4925 11.25H16.0425L15.075 10.2825C14.7825 9.99 14.7825 9.5175 15.075 9.225C15.3675 8.9325 15.84 8.9325 16.1325 9.225L17.34 10.4325C18.2025 11.295 18.2025 12.705 17.34 13.575L17.3475 13.5675Z" fill="#0040E5"/>
</svg>
