<svg width="16" height="16" viewBox="0 0 16 16" fill="none" xmlns="http://www.w3.org/2000/svg">
<path d="M15.42 12.06L14.3467 13.1333C14.2133 13.2667 14.0467 13.3267 13.8733 13.3267C13.7 13.3267 13.5333 13.26 13.4 13.1333C13.14 12.8733 13.14 12.4533 13.4 12.1933L14.26 11.3333H9.32667C8.96 11.3333 8.66 11.0333 8.66 10.6667C8.66 10.3 8.96 10 9.32667 10H14.26L13.4 9.14C13.14 8.88 13.14 8.46 13.4 8.2C13.66 7.94 14.08 7.94 14.34 8.2L15.4133 9.27333C16.18 10.04 16.18 11.2933 15.4133 12.0667L15.42 12.06ZM8.66667 5.33333H13.0267C12.7933 4.72667 12.44 4.16667 11.9667 3.69333L9.64667 1.36667C9.17333 0.893333 8.61333 0.54 8.00667 0.306667V4.66667C8.00667 5.03333 8.30667 5.33333 8.67333 5.33333H8.66667ZM11.8733 12.6667H9.33333C8.23333 12.6667 7.33333 11.7667 7.33333 10.6667C7.33333 9.56667 8.23333 8.66667 9.33333 8.66667H11.8733C11.8733 8.15333 12.0667 7.64 12.46 7.25333C12.7067 7.00667 13.0067 6.83333 13.32 6.74667V6.66667H8.66667C7.56667 6.66667 6.66667 5.76667 6.66667 4.66667V0.0133333C6.56 0.00666667 6.45333 0 6.34 0H3.33333C1.49333 0 0 1.49333 0 3.33333V12.6667C0 14.5067 1.49333 16 3.33333 16H10C11.2067 16 12.2667 15.3533 12.8533 14.3867C12.7133 14.3 12.58 14.2 12.46 14.08C12.0733 13.6933 11.8733 13.18 11.8733 12.6667Z" fill="#0040E5"/>
</svg>
