<svg width="16" height="16" viewBox="0 0 16 16" fill="none" xmlns="http://www.w3.org/2000/svg">
<path d="M5.02331 11.9331L1.13798 15.8045L0.195312 14.8618L4.08065 10.9891L5.02331 11.9331ZM9.22331 13.7765C9.83414 13.1631 10.2747 12.4013 10.5017 11.566C10.7288 10.7307 10.7343 9.85061 10.518 9.01247L10.31 8.1618L12.7233 5.73514L13.1033 6.1158C13.3839 6.4059 13.7577 6.588 14.1591 6.63017C14.5604 6.67234 14.9639 6.57191 15.2986 6.34647C15.4961 6.20597 15.6605 6.02411 15.7805 5.81355C15.9004 5.603 15.973 5.36881 15.9932 5.12733C16.0134 4.88584 15.9807 4.64285 15.8973 4.41531C15.814 4.18776 15.682 3.98113 15.5106 3.8098L12.2293 0.525138C11.9485 0.235388 11.5748 0.0535401 11.1735 0.0113763C10.7722 -0.0307874 10.3689 0.0694152 10.034 0.294471C9.83638 0.434911 9.6718 0.616767 9.55171 0.827355C9.43162 1.03794 9.35891 1.2722 9.33866 1.51377C9.31842 1.75535 9.35111 1.99843 9.43447 2.22607C9.51783 2.45372 9.64985 2.66043 9.82131 2.8318L10.2526 3.26247L7.83865 5.68914L6.99331 5.4818C6.15444 5.26443 5.2734 5.26945 4.43706 5.49637C3.60071 5.72328 2.83795 6.16425 2.22398 6.7758L1.98865 7.0118L8.98865 14.0118L9.22331 13.7765Z" fill="#A6A6A6"/>
</svg>
