<svg width="18" height="18" viewBox="0 0 18 18" fill="none" xmlns="http://www.w3.org/2000/svg">
<g clip-path="url(#clip0_1304_554)">
<path d="M10.5001 18C10.3378 18 10.1799 17.9474 10.0501 17.85L7.05011 15.6C6.95696 15.5301 6.88136 15.4396 6.82929 15.3354C6.77722 15.2313 6.75011 15.1164 6.75011 15V10.785L1.48811 4.86525C1.1144 4.44366 0.870392 3.92311 0.785417 3.36618C0.700443 2.80924 0.778116 2.23961 1.0091 1.72576C1.24008 1.21191 1.61455 0.775694 2.08749 0.469549C2.56043 0.163405 3.11173 0.000355814 3.67511 0L14.3251 0C14.8884 0.000660788 15.4396 0.163979 15.9123 0.47033C16.3851 0.776681 16.7593 1.21303 16.9901 1.72694C17.2208 2.24085 17.2982 2.81046 17.213 3.36731C17.1279 3.92416 16.8837 4.44457 16.5099 4.866L11.2501 10.785V17.25C11.2501 17.4489 11.1711 17.6397 11.0304 17.7803C10.8898 17.921 10.699 18 10.5001 18ZM8.25011 14.625L9.75011 15.75V10.5C9.75026 10.3164 9.81777 10.1392 9.93986 10.002L15.3909 3.86925C15.5726 3.66381 15.6912 3.41028 15.7324 3.13909C15.7736 2.8679 15.7357 2.59058 15.6232 2.34042C15.5107 2.09026 15.3283 1.87789 15.0981 1.72882C14.8678 1.57974 14.5994 1.50029 14.3251 1.5H3.67511C3.40095 1.50042 3.13272 1.57991 2.90261 1.72895C2.6725 1.87799 2.49026 2.09025 2.37776 2.34026C2.26526 2.59028 2.22727 2.86744 2.26835 3.13851C2.30943 3.40958 2.42783 3.66304 2.60936 3.8685L8.06111 10.002C8.18292 10.1393 8.25016 10.3165 8.25011 10.5V14.625Z" fill="black"/>
</g>
<defs>
<clipPath id="clip0_1304_554">
<rect width="18" height="18" fill="white"/>
</clipPath>
</defs>
</svg>
