<svg width="100" height="100" viewBox="0 0 100 100" fill="none" xmlns="http://www.w3.org/2000/svg">
<path d="M100 50C100 77.6142 77.6142 100 50 100C22.3858 100 0 77.6142 0 50C0 22.3858 22.3858 0 50 0C77.6142 0 100 22.3858 100 50ZM11.2882 50C11.2882 71.38 28.62 88.7118 50 88.7118C71.38 88.7118 88.7118 71.38 88.7118 50C88.7118 28.62 71.38 11.2882 50 11.2882C28.62 11.2882 11.2882 28.62 11.2882 50Z" fill="#0040E5"/>
<path d="M32 51.6L43.2 62.8L68 38" stroke="#0040E5" stroke-width="8" stroke-linecap="round"/>
</svg>
