<svg width="18" height="18" viewBox="0 0 18 18" fill="none" xmlns="http://www.w3.org/2000/svg">
<path d="M14.9618 4.152L12.3488 1.5375C11.3565 0.546 10.038 0 8.63625 0H5.25C3.18225 0 1.5 1.68225 1.5 3.75V8.25C1.5 8.664 1.83525 9 2.25 9C2.66475 9 3 8.664 3 8.25V3.75C3 2.5095 4.0095 1.5 5.25 1.5H8.63625C8.7585 1.5 8.88 1.506 9 1.51725V5.25C9 6.4905 10.0095 7.5 11.25 7.5H14.9827C14.994 7.62 15 7.7415 15 7.86375V14.25C15 15.4905 13.9905 16.5 12.75 16.5H5.25C4.0095 16.5 3 15.4905 3 14.25C3 13.836 2.66475 13.5 2.25 13.5C1.83525 13.5 1.5 13.836 1.5 14.25C1.5 16.3177 3.18225 18 5.25 18H12.75C14.8177 18 16.5 16.3177 16.5 14.25V7.86375C16.5 6.4605 15.9532 5.1435 14.9618 4.152ZM11.25 6C10.836 6 10.5 5.66325 10.5 5.25V1.99425C10.785 2.15775 11.0497 2.3595 11.2882 2.598L13.9012 5.2125C14.1397 5.45025 14.3415 5.715 14.505 6H11.2492H11.25ZM7.7985 12H0.75C0.33525 12 0 11.664 0 11.25C0 10.836 0.33525 10.5 0.75 10.5H7.7985L6.82875 9.53025C6.5355 9.237 6.5355 8.76225 6.82875 8.46975C7.122 8.1765 7.596 8.1765 7.88925 8.46975L9.099 9.68025C9.9645 10.5457 9.9645 11.9543 9.099 12.8205L7.88925 14.031C7.743 14.1772 7.551 14.2507 7.359 14.2507C7.167 14.2507 6.975 14.1772 6.82875 14.031C6.5355 13.7385 6.5355 13.2638 6.82875 12.9705L7.7985 12Z" fill="#0040E5"/>
</svg>
