<svg width="14" height="15" viewBox="0 0 14 15" fill="none" xmlns="http://www.w3.org/2000/svg">
<path d="M13.7439 13.0097L11.0343 10.2989C13.0618 7.58945 12.5089 3.74936 9.79948 1.72186C7.09003 -0.305644 3.24994 0.24719 1.22244 2.95664C-0.805064 5.66609 -0.25223 9.50618 2.45722 11.5337C4.63368 13.1623 7.62299 13.1623 9.79948 11.5337L12.5103 14.2445C12.851 14.5852 13.4033 14.5852 13.7439 14.2445C14.0846 13.9038 14.0846 13.3515 13.7439 13.0109L13.7439 13.0097ZM6.15094 11.0105C3.74291 11.0105 1.79083 9.05839 1.79083 6.65036C1.79083 4.24233 3.74291 2.29025 6.15094 2.29025C8.55897 2.29025 10.511 4.24233 10.511 6.65036C10.5085 9.0573 8.55791 11.0079 6.15094 11.0105Z" fill="#B0B0B0"/>
</svg>
