<svg width="12" height="6" viewBox="0 0 12 6" fill="none" xmlns="http://www.w3.org/2000/svg">
<path d="M11.4297 0.337137C11.3544 0.261292 11.2649 0.201092 11.1663 0.160011C11.0677 0.118929 10.9619 0.0977783 10.8551 0.0977783C10.7483 0.0977783 10.6425 0.118929 10.5439 0.160011C10.4453 0.201092 10.3558 0.261292 10.2806 0.337137L6.57449 4.04324C6.49926 4.11909 6.40977 4.17929 6.31116 4.22037C6.21255 4.26145 6.10678 4.2826 5.99996 4.2826C5.89314 4.2826 5.78737 4.26145 5.68876 4.22037C5.59016 4.17929 5.50066 4.11909 5.42543 4.04324L1.71932 0.337137C1.6441 0.261292 1.5546 0.201092 1.45599 0.160011C1.35739 0.118929 1.25162 0.0977783 1.1448 0.0977783C1.03797 0.0977783 0.932207 0.118929 0.833599 0.160011C0.734991 0.201092 0.645494 0.261292 0.570268 0.337137C0.419555 0.488749 0.334961 0.693841 0.334961 0.907618C0.334961 1.1214 0.419555 1.32649 0.570268 1.4781L4.28447 5.1923C4.73964 5.64691 5.35665 5.90225 5.99996 5.90225C6.64327 5.90225 7.26028 5.64691 7.71545 5.1923L11.4297 1.4781C11.5804 1.32649 11.665 1.1214 11.665 0.907618C11.665 0.693841 11.5804 0.488749 11.4297 0.337137Z" fill="black"/>
</svg>
