<svg width="15" height="19" viewBox="0 0 15 19" fill="none" xmlns="http://www.w3.org/2000/svg">
<path d="M11.2495 6.50176H3.75067V5.75188C3.75011 3.68114 5.42832 2.00198 7.49906 2.00141C8.86345 2.00103 10.1203 2.74183 10.7809 3.93567C10.9819 4.29783 11.4385 4.42845 11.8007 4.22738C12.1629 4.02632 12.2935 3.56971 12.0924 3.20755C10.6882 0.671301 7.49375 -0.246385 4.95747 1.15786C3.28678 2.08286 2.25025 3.84223 2.25088 5.75192V6.81977C0.886111 7.4154 0.00318916 8.76217 0.0012207 10.2512V14.7506C0.00371642 16.8203 1.68094 18.4975 3.75067 18.5H11.2495C13.3193 18.4975 14.9965 16.8203 14.999 14.7506V10.2512C14.9965 8.18144 13.3193 6.50422 11.2495 6.50176ZM8.24999 13.2507C8.24999 13.6649 7.91426 14.0006 7.50012 14.0006C7.08597 14.0006 6.75024 13.6649 6.75024 13.2507V11.751C6.75024 11.3368 7.08597 11.0011 7.50012 11.0011C7.91426 11.0011 8.24999 11.3368 8.24999 11.751V13.2507Z" fill="#0040E5"/>
</svg>
